<svg xmlns="http://www.w3.org/2000/svg" viewBox="0 0 64 64" role="img" aria-label="ProofOfAIWork">
  <rect width="64" height="64" rx="14" fill="#161616"/>
  <path d="M32 8 50 16v13c0 13.5-7.2 23.1-18 27-10.8-3.9-18-13.5-18-27V16l18-8Z" fill="#FBF8F1"/>
  <path d="M32 13.5 45 19v10.3c0 9.8-4.9 17.1-13 20.7-8.1-3.6-13-10.9-13-20.7V19l13-5.5Z" fill="#315D8A"/>
  <path d="M24 33.2 29.2 38 40.5 25.5" fill="none" stroke="#FBF8F1" stroke-width="5" stroke-linecap="round" stroke-linejoin="round"/>
  <path d="M24 18.5h12.2c6.1 0 10.1 3.6 10.1 9s-4 9-10.1 9H31v8h-7V18.5Zm11.5 12.1c2.4 0 3.8-1.1 3.8-3.1s-1.4-3.1-3.8-3.1H31v6.2h4.5Z" fill="#FBF8F1" opacity=".95"/>
</svg>
