<svg xmlns="http://www.w3.org/2000/svg" viewBox="0 0 1500 250" role="img" aria-labelledby="title desc">
  <title id="title">Proof of AI Work</title>
  <desc id="desc">Proof of AI Work wordmark with stylized proof glasses.</desc>
  <defs>
    <filter id="paper-lift" x="-5%" y="-15%" width="110%" height="130%">
      <feDropShadow dx="0" dy="6" stdDeviation="6" flood-color="#0b0f0c" flood-opacity=".14"/>
    </filter>
  </defs>
  <g filter="url(#paper-lift)">
    <text
      x="28"
      y="160"
      fill="#fdfbf4"
      stroke="#0b0f0c"
      stroke-width="16"
      paint-order="stroke fill"
      font-family="Arial Black, Impact, Haettenschweiler, sans-serif"
      font-size="132"
      font-weight="900"
      letter-spacing="-8"
    >PR</text>
    <text
      x="520"
      y="160"
      fill="#fdfbf4"
      stroke="#0b0f0c"
      stroke-width="16"
      paint-order="stroke fill"
      font-family="Arial Black, Impact, Haettenschweiler, sans-serif"
      font-size="132"
      font-weight="900"
      letter-spacing="-7"
    >F OF AI WORK</text>
    <g transform="translate(206 39)">
      <circle cx="86" cy="74" r="67" fill="#fdfbf4" stroke="#0b0f0c" stroke-width="12"/>
      <circle cx="228" cy="74" r="67" fill="#fdfbf4" stroke="#0b0f0c" stroke-width="12"/>
      <path d="M153 72 C169 66 185 66 201 72" fill="none" stroke="#0b0f0c" stroke-width="12" stroke-linecap="round"/>
      <path d="M24 76 C68 82 111 82 151 76" fill="none" stroke="#0b0f0c" stroke-width="12" stroke-linecap="round"/>
      <path d="M203 76 C246 82 290 82 331 76" fill="none" stroke="#0b0f0c" stroke-width="12" stroke-linecap="round"/>
      <path d="M43 77 C78 96 111 94 146 81 C112 78 78 76 43 77Z" fill="#0b0f0c"/>
      <path d="M210 81 C245 94 278 96 313 77 C278 76 244 78 210 81Z" fill="#0b0f0c"/>
      <path d="M74 167 C121 161 205 160 260 176" fill="none" stroke="#fdfbf4" stroke-width="22" stroke-linecap="round"/>
      <path d="M74 167 C121 161 205 160 260 176" fill="none" stroke="#0b0f0c" stroke-width="7" stroke-linecap="round"/>
    </g>
  </g>
</svg>
